<?xml version="1.0" encoding="UTF-8"?>
<svg version="1.1" xmlns="http://www.w3.org/2000/svg" width="900" height="900">
<path d="M0 0 C297 0 594 0 900 0 C900 297 900 594 900 900 C603 900 306 900 0 900 C0 603 0 306 0 0 Z " fill="#FEFEFE" transform="translate(0,0)"/>
<path d="M0 0 C1.40789795 -0.01957764 1.40789795 -0.01957764 2.84423828 -0.03955078 C8.5452128 -0.04660769 13.346052 0.56328382 18.8125 2.1875 C19.7921875 2.46851563 20.771875 2.74953125 21.78125 3.0390625 C22.6165625 3.29429687 23.451875 3.54953125 24.3125 3.8125 C25.1684375 4.07289063 26.024375 4.33328125 26.90625 4.6015625 C27.5353125 4.79492188 28.164375 4.98828125 28.8125 5.1875 C28.8125 5.8475 28.8125 6.5075 28.8125 7.1875 C29.51375 7.435 30.215 7.6825 30.9375 7.9375 C44.92425749 14.01869891 54.47439932 26.75724809 60.8125 40.1875 C61.66601381 42.5246085 62.24000904 44.75441343 62.8125 47.1875 C63.163125 48.115625 63.51375 49.04375 63.875 50 C67.73068502 63.10932906 66.30777058 77.97593344 63.8125 91.1875 C63.1525 91.1875 62.4925 91.1875 61.8125 91.1875 C61.791875 92.095 61.77125 93.0025 61.75 93.9375 C60.1217307 105.13185146 50.00861965 117.04137028 41.4375 123.9375 C28.75994656 133.1875 28.75994656 133.1875 22.8125 133.1875 C28.08674825 142.96756298 38.1029515 150.59945043 48.5703125 154.11328125 C53.60973051 155.56194229 58.6034123 156.60871248 63.8125 157.1875 C63.8125 157.8475 63.8125 158.5075 63.8125 159.1875 C61.984375 160.6953125 61.984375 160.6953125 59.5625 162.3125 C58.77359375 162.85132813 57.9846875 163.39015625 57.171875 163.9453125 C54.8125 165.1875 54.8125 165.1875 50.8125 165.1875 C50.8125 165.8475 50.8125 166.5075 50.8125 167.1875 C47.1232187 168.34328988 43.59849595 168.35476606 39.75 168.375 C38.52152344 168.38917969 37.29304688 168.40335938 36.02734375 168.41796875 C32.8125 168.1875 32.8125 168.1875 29.8125 166.1875 C28.4821875 165.81625 28.4821875 165.81625 27.125 165.4375 C16.56076902 161.45099774 5.81298279 150.18846557 0.8125 140.1875 C-0.40566406 140.12691406 -1.62382812 140.06632813 -2.87890625 140.00390625 C-4.50261277 139.91943597 -6.12631022 139.83479128 -7.75 139.75 C-8.54986328 139.71068359 -9.34972656 139.67136719 -10.17382812 139.63085938 C-23.04706555 138.94778963 -23.04706555 138.94778963 -27.1875 136.1875 C-28.033125 135.919375 -28.87875 135.65125 -29.75 135.375 C-47.44738599 129.26135757 -58.46675482 116.28616411 -67 100 C-71.91625879 89.65433756 -73.36695468 79.99695228 -73.3125 68.625 C-73.31636719 67.81353516 -73.32023438 67.00207031 -73.32421875 66.16601562 C-73.31652811 61.40166189 -72.98210894 56.88578302 -72.1875 52.1875 C-71.5275 52.1875 -70.8675 52.1875 -70.1875 52.1875 C-70.15011719 51.61902344 -70.11273438 51.05054688 -70.07421875 50.46484375 C-69.61771378 45.10314807 -68.55260918 41.0205492 -66.1875 36.1875 C-65.5275 36.1875 -64.8675 36.1875 -64.1875 36.1875 C-64.10242188 35.47078125 -64.01734375 34.7540625 -63.9296875 34.015625 C-61.46796027 24.63514861 -50.88408192 16.51590287 -43.1875 11.1875 C-42.5275 11.1875 -41.8675 11.1875 -41.1875 11.1875 C-41.1875 10.5275 -41.1875 9.8675 -41.1875 9.1875 C-29.29566386 2.23602225 -29.29566386 2.23602225 -22.1875 1.1875 C-21.11628906 1.02314453 -21.11628906 1.02314453 -20.0234375 0.85546875 C-13.37718531 0.06424825 -6.68493421 0.05415139 0 0 Z " fill="#6A1C4B" transform="translate(279.1875,541.8125)"/>
<path d="M0 0 C1.16402344 0.67095703 1.16402344 0.67095703 2.3515625 1.35546875 C14.55234699 8.96565707 22.13627004 19.63911367 26.19067383 33.39697266 C27.55628447 39.47651469 27.57839766 45.41851829 27.5 51.625 C27.52320313 53.47351563 27.52320313 53.47351563 27.546875 55.359375 C27.48642328 69.59575478 22.71298588 79.62819657 13.125 90.03515625 C11.17682619 91.88186267 9.18958223 93.44759778 7 95 C5.79537109 95.87011719 5.79537109 95.87011719 4.56640625 96.7578125 C-5.40273607 102.83828228 -18.100691 102.77101946 -29.29296875 100.26171875 C-31.70151439 99.35431318 -33.79523304 98.32112755 -36 97 C-36.68707031 96.63777344 -37.37414062 96.27554688 -38.08203125 95.90234375 C-43.47176443 92.86224568 -48.05046093 88.75835426 -52 84 C-52 83.34 -52 82.68 -52 82 C-52.66 82 -53.32 82 -54 82 C-54.96189997 80.27281484 -55.91936508 78.54315942 -56.875 76.8125 C-57.40867188 75.84957031 -57.94234375 74.88664063 -58.4921875 73.89453125 C-65.60679353 60.23669947 -67.55523377 42.9294402 -63.375 28.0625 C-58.90388715 15.60836214 -50.4379699 3.4015689 -38.14453125 -2.4140625 C-26.42294421 -5.61668191 -10.65900076 -6.21454376 0 0 Z " fill="#FDFCFC" transform="translate(294,563)"/>
<path d="M0 0 C0.66 0 1.32 0 2 0 C4.37113483 4.96284034 6.43174347 9.45949887 7 15 C7.66 15 8.32 15 9 15 C9.495 17.97 9.495 17.97 10 21 C10.66 21 11.32 21 12 21 C12.32613281 21.79664063 12.65226562 22.59328125 12.98828125 23.4140625 C15.72612879 30.06721571 15.72612879 30.06721571 18.8125 36.5625 C20 39 20 39 20 42 C20.66 42 21.32 42 22 42 C22.32613281 42.96421875 22.65226562 43.9284375 22.98828125 44.921875 C23.4293112 46.19804677 23.87073846 47.47408129 24.3125 48.75 C24.52583984 49.38421875 24.73917969 50.0184375 24.95898438 50.671875 C25.93657204 53.47332024 26.86929 55.8273526 28.66796875 58.203125 C30 60 30 60 30 64 C30.66 64 31.32 64 32 64 C38.68149963 78.09469086 38.68149963 78.09469086 41.4375 84.9375 C44.22475795 91.72465409 47.49668788 98.2363452 50.84814453 104.75830078 C51.64929981 106.31748004 52.44689121 107.87849358 53.24169922 109.44091797 C54.52749859 111.96514772 55.82465247 114.48323803 57.125 117 C57.52033936 117.77674072 57.91567871 118.55348145 58.32299805 119.35375977 C62.77018252 128.44621059 62.77018252 128.44621059 70 135 C70 135.99 70 136.98 70 138 C58.78 138 47.56 138 36 138 C35.01 130.08 35.01 130.08 34 122 C32.54775929 117.64327788 31.0537246 113.32011231 29.5 109 C27.9462754 104.67988769 26.45224071 100.35672212 25 96 C8.5 96.33 -8 96.66 -25 97 C-28.42527654 105.502137 -28.42527654 105.502137 -31.125 114.125 C-31.43695313 115.24132812 -31.74890625 116.35765625 -32.0703125 117.5078125 C-33.46871697 124.26480889 -34.14413754 131.15310036 -35 138 C-46.22 138 -57.44 138 -69 138 C-67.21240897 134.42481794 -65.46927182 132.08658978 -63 129 C-56.95268608 121.06290048 -53.08872931 112.03878991 -49 103 C-48.34 103 -47.68 103 -47 103 C-46.835 101.824375 -46.67 100.64875 -46.5 99.4375 C-45.32591102 94.05696271 -42.76057851 89.56995733 -40.10668945 84.8125 C-37.2686864 79.66865973 -35.08041754 74.44218204 -33.10546875 68.90234375 C-31.93029059 65.81698202 -30.51905326 62.92929182 -29 60 C-28.34 60 -27.68 60 -27 60 C-26.896875 59.113125 -26.79375 58.22625 -26.6875 57.3125 C-25.96353911 53.82432483 -24.84972246 52.01436253 -23 49 C-22.41696163 47.5707069 -21.85741229 46.13175867 -21.3125 44.6875 C-19.50037221 40.01081636 -17.33815106 35.58717464 -15.0625 31.125 C-11.70327015 24.5321117 -8.71377915 17.888824 -6 11 C-5.34 11 -4.68 11 -4 11 C-3.896875 10.113125 -3.79375 9.22625 -3.6875 8.3125 C-2.98284093 4.9173245 -2.0445434 2.78057902 0 0 Z " fill="#6B1E4C" transform="translate(488,541)"/>
<path d="M0 0 C9.9 0 19.8 0 30 0 C30 2.31 30 4.62 30 7 C29.67 7.33 29.34 7.66 29 8 C28.63239269 10.32817964 28.29758419 12.6618385 28 15 C27.34 15 26.68 15 26 15 C25.93021786 27.66617122 25.87704614 40.33229604 25.84456348 52.99862099 C25.82896652 58.88131163 25.80783816 64.76386989 25.77368164 70.64648438 C25.74087425 76.33290263 25.7231022 82.01919426 25.71536827 87.70569992 C25.70986292 89.86561448 25.69911329 92.0255228 25.68280983 94.18538284 C25.53806017 111.29960393 25.53806017 111.29960393 29 128 C29.33 128.33 29.66 128.66 30 129 C30 131.31 30 133.62 30 136 C20.1 136 10.2 136 0 136 C0 131.29509115 0.09047519 129.10747631 1.4375 124.9375 C4.95461474 112.69059061 4.19460781 99.44340358 4.31640625 86.79296875 C4.33702687 84.97308435 4.35802448 83.15320418 4.37937927 81.33332825 C4.43407337 76.58734612 4.48371055 71.84132464 4.53222656 67.09527588 C4.58283093 62.2347064 4.63831189 57.37419271 4.69335938 52.51367188 C4.80029486 43.00916246 4.901878 33.50460421 5 24 C4.34 24 3.68 24 3 24 C2.01 16.08 1.02 8.16 0 0 Z " fill="#691A49" transform="translate(371,543)"/>
<path d="M0 0 C0 0.66 0 1.32 0 2 C0.88171875 2.16822266 0.88171875 2.16822266 1.78125 2.33984375 C6.91507303 3.86733687 10.80927111 8.14187993 13.4375 12.6875 C15.69231555 17.62890429 15.35199754 22.68092606 15 28 C14.34 28 13.68 28 13 28 C12.979375 28.99 12.95875 29.98 12.9375 31 C12.06922406 36.9452783 7.77239768 40.7907456 3.25 44.39453125 C-2.86220019 48.12244645 -10.10700352 48.15140861 -17 47 C-23.14994427 44.19066682 -27.96957994 40.06084012 -31 34 C-31 33.01 -31 32.02 -31 31 C-31.66 31 -32.32 31 -33 31 C-34.03331672 15.23235229 -34.03331672 15.23235229 -30.3125 10.3125 C-29.24134777 9.17627777 -28.13885409 8.0683536 -27 7 C-26.195625 6.071875 -25.39125 5.14375 -24.5625 4.1875 C-17.49275724 -1.84764626 -8.81658997 -2.56032121 0 0 Z " fill="#6A1B4A" transform="translate(404,191)"/>
<path d="M0 0 C0 0.66 0 1.32 0 2 C0.57492187 2.08894531 1.14984375 2.17789063 1.7421875 2.26953125 C6.91166116 3.94200802 10.96816472 9.10830198 13.5 13.75 C14.59891734 20.89296272 14.98852119 28.27582732 12 35 C11.34 35 10.68 35 10 35 C9.67 36.32 9.34 37.64 9 39 C8.34 39 7.68 39 7 39 C7 39.66 7 40.32 7 41 C1.70588235 45 1.70588235 45 -2 45 C-2 45.66 -2 46.32 -2 47 C-4.56314499 47.08132187 -7.12368418 47.14064175 -9.6875 47.1875 C-10.40873047 47.21263672 -11.12996094 47.23777344 -11.87304688 47.26367188 C-16.43351838 47.32614409 -19.41979462 46.91641976 -23 44 C-23 43.34 -23 42.68 -23 42 C-23.59296875 41.91878906 -24.1859375 41.83757812 -24.796875 41.75390625 C-28.59516238 40.45413769 -29.87342421 37.60080862 -31.7890625 34.2265625 C-34.31825022 27.48750102 -34.28124239 19.54803587 -32.33203125 12.62890625 C-26.17503563 0.556893 -12.47119231 -3.69958815 0 0 Z " fill="#6A1C4B" transform="translate(570,191)"/>
<path d="M0 0 C6.14508506 3.65351061 11.1914834 9.30297512 13.37890625 16.12890625 C14.24886562 22.36836892 14.74719856 28.47360633 11.80078125 34.19140625 C7.16431131 40.1374135 1.75311617 45.02198913 -5.62109375 47.12890625 C-14.2147435 47.67453481 -20.80966167 45.4412411 -27.62109375 40.12890625 C-29.99609375 37.06640625 -29.99609375 37.06640625 -31.62109375 34.12890625 C-31.976875 33.56945312 -32.33265625 33.01 -32.69921875 32.43359375 C-35.01166552 26.65247681 -34.56146236 17.72373308 -33.00390625 11.76953125 C-26.69803184 -0.39578398 -12.48194158 -4.14824586 0 0 Z " fill="#6B1D4B" transform="translate(570.62109375,246.87109375)"/>
<path d="M0 0 C4.91047403 3.34805047 8.10916378 7.32749135 10 13 C10.68693536 20.63479586 10.93614244 27.51189656 6.6328125 34.08984375 C3.87300778 37.31841913 0.75590207 39.99632839 -3 42 C-3.99 42 -4.98 42 -6 42 C-6 42.66 -6 43.32 -6 44 C-21.68326687 44.91894142 -21.68326687 44.91894142 -27.42578125 40.484375 C-34.16884195 34.12615399 -37.12438219 28.38521736 -37.5625 19.125 C-37.43398105 12.43487456 -35.82581004 7.731877 -31 3 C-30.01 2.67 -29.02 2.34 -28 2 C-28 1.34 -28 0.68 -28 0 C-19.36503685 -5.99650219 -8.66788274 -5.73900912 0 0 Z " fill="#6A1C4B" transform="translate(243,194)"/>
<path d="M0 0 C2.50212047 2.42994392 4.31711873 4.95507454 6 8 C6.37640625 8.59167969 6.7528125 9.18335938 7.140625 9.79296875 C8.38207887 12.98124801 8.18803231 15.84625505 8.125 19.25 C8.10695313 20.51328125 8.08890625 21.7765625 8.0703125 23.078125 C8.04710937 24.04234375 8.02390625 25.0065625 8 26 C7.34 26 6.68 26 6 26 C5.979375 26.845625 5.95875 27.69125 5.9375 28.5625 C4.37315885 34.29841755 0.09789484 37.50150368 -4.625 40.875 C-11.19537908 43.98728483 -18.95989692 43.94691735 -25.8125 41.8125 C-29.1797566 39.89778546 -31.4172915 37.86967611 -34 35 C-34.5775 34.525625 -35.155 34.05125 -35.75 33.5625 C-37.60431006 31.24461242 -37.67873538 28.8913816 -38 26 C-38.66 26 -39.32 26 -40 26 C-40.59710193 17.41500121 -40.54896905 10.87589643 -35 4 C-24.85932355 -7.05291303 -12.60975877 -7.38520984 0 0 Z " fill="#6B1D4B" transform="translate(466,250)"/>
<path d="M0 0 C5.91436255 3.74824054 11.16002653 8.08039658 13.25 14.9375 C13.48046875 18.12890625 13.48046875 18.12890625 13.4375 21.5 C13.43105469 22.61503906 13.42460938 23.73007813 13.41796875 24.87890625 C13.27879876 27.41309459 12.98749391 29.52441993 12.25 31.9375 C11.59 31.9375 10.93 31.9375 10.25 31.9375 C9.92 33.5875 9.59 35.2375 9.25 36.9375 C8.26 37.2675 7.27 37.5975 6.25 37.9375 C5.92 38.9275 5.59 39.9175 5.25 40.9375 C2.32920195 43.01280387 0.87453269 43.9375 -2.75 43.9375 C-2.75 44.5975 -2.75 45.2575 -2.75 45.9375 C-18.42294851 46.85583683 -18.42294851 46.85583683 -24.17578125 42.42578125 C-29.28877749 37.59190639 -33.32374288 32.49732297 -34.18359375 25.31640625 C-34.19768391 11.55032069 -34.19768391 11.55032069 -28.171875 5.30078125 C-20.28743003 -2.03317319 -9.96795915 -5.15408127 0 0 Z " fill="#6A1C4A" transform="translate(625.75,192.0625)"/>
<path d="M0 0 C1.89575251 -0.02721176 3.79161979 -0.04649136 5.6875 -0.0625 C6.74324219 -0.07410156 7.79898437 -0.08570313 8.88671875 -0.09765625 C13.42835717 0.04480418 16.06796677 0.16117009 19.5 3.25 C20.325 4.1575 21.15 5.065 22 6 C22.86625 6.78375 23.7325 7.5675 24.625 8.375 C29.75175481 14.04141321 30.67746368 19.44388007 30.48046875 26.9296875 C29.46393414 33.42559159 25.74752248 38.68975229 20.9375 43.0625 C18.1305979 44.91386096 16.31816432 45.70722079 13 46 C13 46.66 13 47.32 13 48 C3.77149234 48.50644249 -2.71430288 48.41008669 -9.93359375 42.38671875 C-15.67053401 37.00759182 -18.14362979 32.59622952 -18.4375 24.625 C-18.20260506 16.356698 -16.09251751 11.72135281 -10.125 6.0625 C-6.84983218 3.36385985 -4.35170698 2.10879267 0 2 C0 1.34 0 0.68 0 0 Z " fill="#6A1C4B" transform="translate(444,190)"/>
<path d="M0 0 C7.56220495 -0.24220585 13.50700359 -0.32866427 20 4 C20 4.66 20 5.32 20 6 C20.5775 6.226875 21.155 6.45375 21.75 6.6875 C25.56083774 8.91048868 27.61929664 11.85788992 29 16 C30.2764807 32.39365922 30.2764807 32.39365922 25.6328125 38.390625 C22.67347922 41.30747981 19.46730519 43.72231416 16 46 C15.01 46.66 14.02 47.32 13 48 C5.38301178 48.85837946 -2.17037228 49.28345312 -8.4921875 44.42578125 C-13.68844247 39.51222409 -17.56501563 33.91866941 -18.203125 26.703125 C-18.3635352 18.30832451 -16.99798859 12.83404569 -11.25 6.5625 C-7.52603231 3.03852316 -5.08942139 2 0 2 C0 1.34 0 0.68 0 0 Z " fill="#6A1B4A" transform="translate(334,190)"/>
<path d="M0 0 C0 0.66 0 1.32 0 2 C1.0209375 2.0309375 1.0209375 2.0309375 2.0625 2.0625 C7.44226094 3.77944498 10.82691483 8.06738273 13.6953125 12.79296875 C15.19377436 16.47631361 15.33556672 19.16326099 15.25 23.125 C15.23453125 24.32382812 15.2190625 25.52265625 15.203125 26.7578125 C15.04046168 29.35416933 14.76184732 31.53014015 14 34 C13.34 34 12.68 34 12 34 C11.75894531 34.74636719 11.51789062 35.49273437 11.26953125 36.26171875 C9.82242128 39.38302364 8.39456335 40.72419398 5.6875 42.8125 C4.92824219 43.41707031 4.16898438 44.02164063 3.38671875 44.64453125 C0.67625826 46.18385987 -0.93378691 46.27677322 -4 46 C-4 46.66 -4 47.32 -4 48 C-12.96211509 48.22475524 -18.30778453 47.01011585 -25.07421875 41.0078125 C-27.67846044 38.29263962 -29 36.8423931 -29 33 C-29.66 33 -30.32 33 -31 33 C-33.08947695 26.73156914 -32.66033891 19.5175421 -31 13.1875 C-23.78034727 1.68117846 -13.43684413 -3.83027281 0 0 Z " fill="#6B1D4B" transform="translate(679,246)"/>
<path d="M0 0 C0 0.66 0 1.32 0 2 C0.845625 2.04125 1.69125 2.0825 2.5625 2.125 C8.35644708 3.59982289 12.31580897 7.38543466 15.4375 12.4375 C18.14375164 18.6215224 18.03026311 25.43812286 17 32 C13.74044206 39.29431161 8.82627922 43.78186157 1.6796875 47.06640625 C-3.84915012 48.99263393 -10.02224754 49.01370297 -15.5703125 47.125 C-21.69732161 43.96803259 -26.53939095 39.62893588 -29.13671875 33.17578125 C-30.92881289 26.58314534 -31.28408256 18.90317102 -28.4375 12.5625 C-26.02534066 8.52234619 -22.80660896 5.7033661 -19 3 C-17.700625 2.071875 -17.700625 2.071875 -16.375 1.125 C-11.0084813 -0.66383957 -5.60533367 -0.22454601 0 0 Z " fill="#691A49" transform="translate(677,521)"/>
<path d="M0 0 C9.65405192 -0.75117983 16.37996845 -0.30261942 24 6 C26.4375 8.5 26.4375 8.5 28 11 C28.5775 11.86625 29.155 12.7325 29.75 13.625 C31.88374058 19.38609957 31.59823616 25.22635962 30.3125 31.1875 C26.79148364 38.73253506 23.45322288 43.50812994 15.640625 47.078125 C9.5518111 49.20380559 3.05036587 48.75993373 -2.875 46.3125 C-8.55589665 43.40623023 -12.56116489 39.35548616 -15.2734375 33.578125 C-17.13324315 26.97881462 -17.2601437 19.15993481 -14.71484375 12.77734375 C-13.05207762 10.0843444 -11.51201944 8.24479496 -9.125 6.1875 C-8.46757813 5.60355469 -7.81015625 5.01960937 -7.1328125 4.41796875 C-4.73905866 2.82651702 -2.82780977 2.37934033 0 2 C0 1.34 0 0.68 0 0 Z " fill="#6A1C4A" transform="translate(608,521)"/>
<path d="M0 0 C0 0.66 0 1.32 0 2 C0.825 2.04125 1.65 2.0825 2.5 2.125 C7.93460841 3.4836521 11.86528084 6.37632282 15.3984375 10.71875 C18.94371508 16.65268978 18.83747395 23.30020844 18 30 C17.05790034 32.9993377 15.78259175 35.42106141 14 38 C13.0409375 39.3921875 13.0409375 39.3921875 12.0625 40.8125 C9.86050397 43.14795033 7.88164467 44.59612183 5 46 C4.01 46 3.02 46 2 46 C2 46.66 2 47.32 2 48 C-13.67294851 48.91833683 -13.67294851 48.91833683 -19.42578125 44.48828125 C-24.53877749 39.65440639 -28.57374288 34.55982297 -29.43359375 27.37890625 C-29.44234717 18.82681215 -29.43690643 13.70649062 -23.45703125 7.36328125 C-16.41877893 0.7115691 -9.45603958 -0.52318252 0 0 Z " fill="#691B4A" transform="translate(621,576)"/>
<path d="M0 0 C9.12009356 -0.59136053 16.41549171 -0.51991624 24 5 C26.07075364 6.92049487 27.41512709 8.62269064 29 11 C29 11.66 29 12.32 29 13 C29.66 13 30.32 13 31 13 C33.15048618 19.45145853 33.20991835 27.5711539 30.94140625 34 C27.39357175 40.30726133 22.46702184 45.3964537 15.5625 47.875 C14.716875 47.91625 13.87125 47.9575 13 48 C12.33226562 48.04898438 11.66453125 48.09796875 10.9765625 48.1484375 C4.20247182 48.44899442 -0.78875426 46.83499757 -6.625 43.5 C-12.18512283 37.64723912 -15.36952371 31.44989281 -15.625 23.3125 C-15.18114604 15.15909566 -12.89452841 10.50723437 -6.9375 5 C-3.44866071 2 -3.44866071 2 0 2 C0 1.34 0 0.68 0 0 Z " fill="#691A49" transform="translate(662,466)"/>
<path d="M0 0 C1.11084961 0.02030273 1.11084961 0.02030273 2.24414062 0.04101562 C4.05891075 0.07614021 5.87330288 0.12994028 7.6875 0.1875 C7.6875 0.8475 7.6875 1.5075 7.6875 2.1875 C8.26113281 2.29578125 8.83476563 2.4040625 9.42578125 2.515625 C13.46560049 3.71570947 16.6674617 6.29876772 19.6875 9.1875 C20.6875 12.0625 20.6875 12.0625 20.6875 14.1875 C21.3475 14.1875 22.0075 14.1875 22.6875 14.1875 C24.64227895 20.05183685 24.75572531 26.9445021 22.81640625 32.83203125 C19.42204271 39.36478992 14.70869425 43.47739005 8.375 47.0625 C1.61365328 49.12528374 -3.99532972 49.11361307 -10.5 46.1875 C-15.70243794 43.30728594 -20.87220959 39.11250192 -22.98046875 33.3671875 C-24.17235015 25.54283667 -24.63570647 17.02095539 -20.3125 10.1875 C-14.32999159 3.14143454 -9.48677133 -0.33063814 0 0 Z " fill="#6A1B4A" transform="translate(615.3125,465.8125)"/>
<path d="M0 0 C10.12367576 -0.67826116 17.86380113 -0.95968131 26 6 C31.19708123 11.19708123 33.17392664 16.54204961 33.25 23.75 C33.19765177 26.87344414 32.99479651 29.01561047 32 32 C31.34 32 30.68 32 30 32 C29.92136719 32.73863281 29.84273438 33.47726562 29.76171875 34.23828125 C28.37490639 39.26636505 24.04742629 41.97293328 20 45 C14.41247911 47.91522829 6.99442393 48.02287117 0.91015625 46.46484375 C-5.46081639 43.91366652 -10.15926297 39.62247255 -13.81640625 33.89453125 C-16.31379155 27.78706424 -16.01097136 21.40503563 -15 15 C-13.48890202 11.69205153 -11.63790839 9.46856118 -9 7 C-8.319375 6.195625 -7.63875 5.39125 -6.9375 4.5625 C-4.64369181 2.71265469 -2.90009838 2.32223315 0 2 C0 1.34 0 0.68 0 0 Z " fill="#691949" transform="translate(386,246)"/>
<path d="M0 0 C4.40491337 3.2073932 7.72174292 6.58319751 9.45703125 11.7890625 C10.36475012 19.94917437 10.83552915 26.9786389 5.95703125 33.9765625 C3.7109375 36.5703125 3.7109375 36.5703125 1.45703125 38.7890625 C0.86792969 39.376875 0.27882813 39.9646875 -0.328125 40.5703125 C-6.3780807 45.35709063 -14.26301069 44.21562254 -21.54296875 43.7890625 C-21.54296875 43.1290625 -21.54296875 42.4690625 -21.54296875 41.7890625 C-22.22359375 41.7478125 -22.90421875 41.7065625 -23.60546875 41.6640625 C-28.59581248 40.17757713 -31.97783983 37.10472107 -34.87890625 32.8125 C-38.01306793 26.69977333 -38.56785013 20.54276802 -37.54296875 13.7890625 C-36.03986538 9.35104582 -34.54602337 4.96351539 -30.37109375 2.515625 C-29.7678125 2.27585937 -29.16453125 2.03609375 -28.54296875 1.7890625 C-28.54296875 1.1290625 -28.54296875 0.4690625 -28.54296875 -0.2109375 C-19.41014394 -6.55317695 -9.24168676 -5.57938743 0 0 Z " fill="#6A1B4A" transform="translate(684.54296875,580.2109375)"/>
<path d="M0 0 C5.37731702 3.9469869 9.51415281 7.69687662 12 14 C12.72882153 20.08664467 13.38074498 27.37934645 10.5 33 C7.37046256 36.75544493 4.06788779 40.25187868 0 43 C-0.99 43 -1.98 43 -3 43 C-3 43.66 -3 44.32 -3 45 C-9.23206748 46.55801687 -15.32633654 46.9813535 -21.20703125 44.1015625 C-27.50737065 40.23076574 -33.06357127 35.33422383 -35 28 C-35.80764351 21.28646332 -35.94296595 14.72848729 -32.40234375 8.78125 C-24.2750355 -1.54201619 -12.43511548 -5.52671799 0 0 Z " fill="#6A1B4A" transform="translate(296,413)"/>
<path d="M0 0 C7.57792661 -0.4546756 13.67815565 -0.55349628 20 4 C22.75 6.5 22.75 6.5 25 9 C25.7425 9.70125 26.485 10.4025 27.25 11.125 C31.20229006 15.35959649 30.25859941 21.08515354 30.23046875 26.53125 C29.94811502 30.78091298 29.0841833 33.33183739 27 37 C26.505 37.99 26.505 37.99 26 39 C25.34 39 24.68 39 24 39 C23.773125 39.598125 23.54625 40.19625 23.3125 40.8125 C21.63289954 43.61183411 19.90894875 44.58100061 17 46 C16.01 46 15.02 46 14 46 C14 46.66 14 47.32 14 48 C-1.68326687 48.91894142 -1.68326687 48.91894142 -7.42578125 44.484375 C-12.66584206 39.54337473 -16.55607885 34.46353598 -17.28515625 27.1328125 C-17.53476265 18.42914576 -16.12123762 12.51615618 -10 6 C-9.34 6 -8.68 6 -8 6 C-8 5.34 -8 4.68 -8 4 C-5.36 3.34 -2.72 2.68 0 2 C0 1.34 0 0.68 0 0 Z " fill="#6A1B4A" transform="translate(664,190)"/>
<path d="M0 0 C1.28197266 -0.00386719 1.28197266 -0.00386719 2.58984375 -0.0078125 C4.88930852 0.11569746 6.85890348 0.48079313 9.0625 1.125 C9.0625 1.785 9.0625 2.445 9.0625 3.125 C9.78953125 3.19074219 10.5165625 3.25648438 11.265625 3.32421875 C14.92874276 4.37301643 16.3237662 6.08547788 18.8125 8.9375 C19.98039063 10.24654297 19.98039063 10.24654297 21.171875 11.58203125 C24.25947315 15.73497835 24.20023467 19.03113211 24.1875 24.125 C24.19136719 25.671875 24.19136719 25.671875 24.1953125 27.25 C24.08113671 29.72157009 23.77600656 31.7692958 23.0625 34.125 C22.4025 34.125 21.7425 34.125 21.0625 34.125 C21.02125 34.846875 20.98 35.56875 20.9375 36.3125 C19.29428389 41.59426606 13.78770374 44.63805066 9.0625 47.125 C2.46123781 49.09307817 -4.35756354 48.67612167 -10.796875 46.30078125 C-16.67110616 43.07424187 -20.4179011 37.17501033 -22.9375 31.125 C-23.30078125 27.65234375 -23.30078125 27.65234375 -23.25 24.0625 C-23.24613281 22.87527344 -23.24226562 21.68804687 -23.23828125 20.46484375 C-22.64209141 13.84481369 -19.63352619 9.61824324 -14.9375 5.125 C-10.19687185 1.78044666 -5.80917697 -0.01747121 0 0 Z " fill="#6A1C4B" transform="translate(614.9375,244.875)"/>
<path d="M0 0 C5.83144887 3.4556734 10.73575807 7.4666261 14.4375 13.1875 C16.02406779 19.63954234 16.90370542 26.35170656 14.2734375 32.62890625 C11.06496923 37.69897242 6.43144514 43.51505133 0.625 45.640625 C-2.59388643 46.15475269 -5.74139662 46.21097481 -9 46.25 C-10.28648437 46.27578125 -11.57296875 46.3015625 -12.8984375 46.328125 C-18.73303262 45.81438707 -22.53021829 43.65825374 -26.3125 39.25 C-31.3282664 33.1356476 -33.28436674 27.67623265 -33.03515625 19.77734375 C-31.9916803 12.71152086 -27.91467255 7.49819511 -22.36328125 3.21875 C-15.204333 -1.80055754 -8.38032362 -2.31181341 0 0 Z " fill="#6A1C4A" transform="translate(513.625,191)"/>
<path d="M0 0 C1.12921875 -0.00386719 1.12921875 -0.00386719 2.28125 -0.0078125 C4.473535 0.12341583 6.39319137 0.52168662 8.5 1.125 C8.5 1.785 8.5 2.445 8.5 3.125 C9.20125 3.186875 9.9025 3.24875 10.625 3.3125 C14.53098649 4.41636575 16.64717827 6.27217827 19.5 9.125 C20.375 11.9375 20.375 11.9375 20.5 14.125 C21.16 14.125 21.82 14.125 22.5 14.125 C23.66152902 17.60958707 23.63270324 20.39190508 23.625 24.0625 C23.62886719 25.90134766 23.62886719 25.90134766 23.6328125 27.77734375 C23.52667535 30.45262431 23.29917654 32.59427428 22.5 35.125 C21.84 35.125 21.18 35.125 20.5 35.125 C20.2215625 36.176875 20.2215625 36.176875 19.9375 37.25 C17.38204444 42.36091112 13.41361797 45.33066801 8.1875 47.5 C0.77007012 48.75719151 -6.88908228 49.26875049 -13.5 45.125 C-16.16415536 42.68920081 -18.53975075 40.16338634 -20.5 37.125 C-20.5 36.135 -20.5 35.145 -20.5 34.125 C-21.16 34.125 -21.82 34.125 -22.5 34.125 C-23.64330513 30.69508462 -23.70381651 27.9263584 -23.75 24.3125 C-23.78867187 22.50845703 -23.78867187 22.50845703 -23.828125 20.66796875 C-23.13826592 13.21913321 -18.89485471 8.82912276 -13.5 4.125 C-9.05834535 1.02617117 -5.37738878 -0.01841571 0 0 Z " fill="#6A1B4A" transform="translate(284.5,244.875)"/>
<path d="M0 0 C0.68384766 0.00902344 1.36769531 0.01804688 2.07226562 0.02734375 C3.73583287 0.05061042 5.39921631 0.08646833 7.0625 0.125 C7.0625 0.785 7.0625 1.445 7.0625 2.125 C7.784375 2.3725 8.50625 2.62 9.25 2.875 C12.37425343 4.26355708 14.57801912 5.77854583 17.0625 8.125 C17.875 10.375 17.875 10.375 18.0625 12.125 C18.7225 12.125 19.3825 12.125 20.0625 12.125 C21.2429489 15.66634669 21.20868724 18.87945214 21.1875 22.5625 C21.19136719 24.54056641 21.19136719 24.54056641 21.1953125 26.55859375 C21.0922031 29.32738454 20.90332567 31.51577114 20.0625 34.125 C19.4025 34.125 18.7425 34.125 18.0625 34.125 C17.8975 34.82625 17.7325 35.5275 17.5625 36.25 C15.40899126 40.37755843 12.07011441 42.81566179 8.0625 45.125 C7.0725 45.125 6.0825 45.125 5.0625 45.125 C5.0625 45.785 5.0625 46.445 5.0625 47.125 C-4.28267842 47.90999499 -10.38916255 48.09204409 -17.984375 42.046875 C-19.89838859 40.16348563 -21.50244221 38.39566106 -22.9375 36.125 C-22.9375 35.135 -22.9375 34.145 -22.9375 33.125 C-23.5975 33.125 -24.2575 33.125 -24.9375 33.125 C-26.92604273 26.46419022 -27.27443583 18.09351849 -24.375 11.6875 C-21.2858293 6.54250795 -17.3536064 2.98872886 -11.703125 0.96875 C-7.67291307 0.06571496 -4.12403257 -0.07299173 0 0 Z " fill="#691B4A" transform="translate(286.9375,190.875)"/>
<path d="M0 0 C6.45391052 3.84752358 11.3819162 7.84094219 14.25 14.9375 C15.13482671 21.80885696 15.32811951 29.09661529 11.66015625 35.18359375 C8.94902983 38.55560417 5.87140752 41.55793038 2.25 43.9375 C1.26 43.9375 0.27 43.9375 -0.75 43.9375 C-0.75 44.5975 -0.75 45.2575 -0.75 45.9375 C-8.21375377 47.80343844 -14.94736107 47.58805408 -21.75 43.9375 C-26.60986768 39.86877357 -31.60885027 34.3519627 -32.75 27.9375 C-33.30106223 20.28670583 -32.9913212 13.41728693 -28 7.25 C-20.23341284 -1.20019874 -10.93059521 -3.09700198 0 0 Z " fill="#691B4A" transform="translate(679.75,412.0625)"/>
<path d="M0 0 C5.23755936 3.38218778 10.12914095 8.01242286 12.125 14 C12.24617236 16.26845929 12.30040383 18.54083894 12.3125 20.8125 C12.32667969 22.01519531 12.34085937 23.21789062 12.35546875 24.45703125 C11.92117168 31.13342864 10.0133982 34.65511215 5.25 39.3125 C4.38632812 40.17488281 3.52265625 41.03726563 2.6328125 41.92578125 C-3.21477749 46.76233932 -11.64939204 45.54269588 -18.875 45 C-25.73406227 43.08959004 -29.80678791 36.89549692 -33.75 31.375 C-35.93419554 24.82241339 -36.19626766 17.0449513 -33.375 10.625 C-26.48416625 -0.94963889 -12.44077513 -6.34864298 0 0 Z " fill="#691B4A" transform="translate(295.875,358)"/>
<path d="M0 0 C0 0.66 0 1.32 0 2 C0.556875 2.226875 1.11375 2.45375 1.6875 2.6875 C6.23064618 5.26604243 9.62385395 8.85317982 11.48828125 13.7890625 C13.38070285 21.96547948 12.74359268 29.22075439 8.38671875 36.390625 C7 38 7 38 4 39 C4 39.66 4 40.32 4 41 C2.02 41.495 2.02 41.495 0 42 C0 42.66 0 43.32 0 44 C-7.68921168 46.61760398 -15.05651591 47.10068008 -22.7890625 44.23828125 C-28.2485199 41.18059928 -31.99259666 36.26665752 -34.5 30.625 C-35.82831336 20.99472816 -35.51754522 13.98318906 -29.75 5.8125 C-21.39867004 -2.72863291 -11.00644525 -3.5939413 0 0 Z " fill="#6A1C4A" transform="translate(682,633)"/>
<path d="M0 0 C0.72380859 0.00064453 1.44761719 0.00128906 2.19335938 0.00195312 C7.53077696 0.04663848 7.53077696 0.04663848 9.8125 1.1875 C9.8125 1.8475 9.8125 2.5075 9.8125 3.1875 C10.40804687 3.28289062 11.00359375 3.37828125 11.6171875 3.4765625 C14.28700677 4.34116589 15.19112885 5.39553685 16.9375 7.5625 C17.43507813 8.16835938 17.93265625 8.77421875 18.4453125 9.3984375 C23.30396832 15.75633569 23.28346896 22.42959468 22.8125 30.1875 C21.49535131 36.3341939 16.08877442 41.54646495 11.125 45.125 C4.31936268 48.25191445 -3.8041845 48.08971747 -10.9375 46.1875 C-11.68 45.8575 -12.4225 45.5275 -13.1875 45.1875 C-13.1875 44.5275 -13.1875 43.8675 -13.1875 43.1875 C-13.765 42.94 -14.3425 42.6925 -14.9375 42.4375 C-19.75583407 39.76064774 -22.07626609 36.19800498 -24.1875 31.1875 C-24.5859375 27.53125 -24.5859375 27.53125 -24.5625 23.6875 C-24.57023438 22.4190625 -24.57796875 21.150625 -24.5859375 19.84375 C-23.93876083 13.9049523 -21.50230972 10.07840144 -17.3125 5.9375 C-16.32636719 4.93976563 -16.32636719 4.93976563 -15.3203125 3.921875 C-10.54534099 0.03893113 -5.96715493 -0.10260266 0 0 Z " fill="#691B4A" transform="translate(616.1875,300.8125)"/>
<path d="M0 0 C4.95587491 3.93607394 8.74024857 8.44641748 9.5703125 14.85546875 C9.79358143 23.31177951 8.8522925 28.37040443 3.1640625 34.71875 C2.4834375 35.5025 1.8028125 36.28625 1.1015625 37.09375 C-5.75943923 42.84813855 -12.14972802 43.25772115 -20.8359375 42.71875 C-24.5234375 41.71875 -24.5234375 41.71875 -26.8359375 40.71875 C-26.8359375 40.05875 -26.8359375 39.39875 -26.8359375 38.71875 C-27.3928125 38.491875 -27.9496875 38.265 -28.5234375 38.03125 C-31.51634949 36.33257022 -33.57120987 34.29802313 -35.8359375 31.71875 C-35.8359375 30.72875 -35.8359375 29.73875 -35.8359375 28.71875 C-36.4959375 28.71875 -37.1559375 28.71875 -37.8359375 28.71875 C-38.86752491 25.32106132 -38.96971346 22.19735037 -38.9609375 18.65625 C-38.96351563 17.61339844 -38.96609375 16.57054687 -38.96875 15.49609375 C-38.8359375 12.71875 -38.8359375 12.71875 -37.8359375 9.71875 C-37.1759375 9.71875 -36.5159375 9.71875 -35.8359375 9.71875 C-35.7946875 9.0175 -35.7534375 8.31625 -35.7109375 7.59375 C-34.47321977 3.52696317 -32.23400531 1.12226138 -28.8359375 -1.28125 C-18.97725822 -5.90035148 -9.08826763 -6.11654837 0 0 Z " fill="#691B4A" transform="translate(519.8359375,250.28125)"/>
<path d="M0 0 C4.7248563 3.73310428 8.14974614 7.76523559 9.97265625 13.55859375 C10.23828125 16.93359375 10.23828125 16.93359375 10.22265625 20.55859375 C10.23039062 22.35296875 10.23039062 22.35296875 10.23828125 24.18359375 C9.98382826 27.41664349 9.35952747 29.65276834 7.97265625 32.55859375 C7.31265625 32.55859375 6.65265625 32.55859375 5.97265625 32.55859375 C5.72515625 33.13609375 5.47765625 33.71359375 5.22265625 34.30859375 C2.54580399 39.12692782 -1.01683877 41.44735984 -6.02734375 43.55859375 C-9.68359375 43.95703125 -9.68359375 43.95703125 -13.52734375 43.93359375 C-14.79578125 43.94132812 -16.06421875 43.9490625 -17.37109375 43.95703125 C-24.801534 43.14730379 -29.41614922 39.11298716 -34.02734375 33.55859375 C-38.09475219 27.12946428 -37.79840785 19.98008567 -37.02734375 12.55859375 C-35.3449679 6.88057527 -30.60545978 2.16264254 -26.02734375 -1.44140625 C-17.70918379 -5.19273329 -7.69556952 -4.93019245 0 0 Z " fill="#691A49" transform="translate(243.02734375,359.44140625)"/>
<path d="M0 0 C1.12921875 -0.00386719 1.12921875 -0.00386719 2.28125 -0.0078125 C4.473535 0.12341583 6.39319137 0.52168662 8.5 1.125 C8.5 1.785 8.5 2.445 8.5 3.125 C9.5209375 3.186875 9.5209375 3.186875 10.5625 3.25 C15.78491474 4.8056129 19.29368581 8.24204062 22.19921875 12.77734375 C23.84503014 17.01296045 23.83589092 20.5102235 23.6875 25 C23.66719727 26.175625 23.66719727 26.175625 23.64648438 27.375 C23.61141789 29.29196782 23.55762072 31.20857751 23.5 33.125 C22.84 33.125 22.18 33.125 21.5 33.125 C21.2215625 34.424375 21.2215625 34.424375 20.9375 35.75 C18.53834208 41.38280555 14.37502305 44.08332053 9.125 47 C1.54460487 49.35253642 -5.33642421 48.47701282 -12.5 45.125 C-18.68978061 41.03740903 -21.2213126 35.96106221 -23.5 29.125 C-24.16686235 21.78951415 -23.47271075 16.07393428 -18.91796875 10.0234375 C-13.51185241 3.54552031 -8.59855676 -0.02944711 0 0 Z " fill="#691A49" transform="translate(339.5,244.875)"/>
<path d="M0 0 C5.66976601 3.29068772 11.4058181 8.8971418 13.4921875 15.15625 C13.58836057 17.66806429 13.63153512 20.14541622 13.6171875 22.65625 C13.62298828 23.67138672 13.62298828 23.67138672 13.62890625 24.70703125 C13.62281166 27.79698767 13.4765898 30.20304311 12.4921875 33.15625 C11.8321875 33.15625 11.1721875 33.15625 10.4921875 33.15625 C10.39164062 33.75308594 10.29109375 34.34992188 10.1875 34.96484375 C8.64201771 39.83571772 3.507557 42.55897383 -0.6953125 45.03125 C-7.3315041 46.98947047 -14.43375786 47.46549794 -20.8828125 44.59375 C-27.17479086 40.87873575 -31.45110312 35.12620956 -33.5078125 28.15625 C-34.11636846 20.90187655 -34.22706542 14.84316499 -29.7734375 8.8046875 C-29.10828125 8.05445313 -28.443125 7.30421875 -27.7578125 6.53125 C-27.10296875 5.77585937 -26.448125 5.02046875 -25.7734375 4.2421875 C-18.86139432 -2.12165915 -8.78423845 -2.95544471 0 0 Z " fill="#691B4A" transform="translate(294.5078125,301.84375)"/>
<path d="M0 0 C5.71085137 3.85579591 9.28520192 8.95696394 11.296875 15.55078125 C12.25095128 23.63392751 10.85173314 30.50129738 5.859375 36.98828125 C2.536875 40.31078125 2.536875 40.31078125 -0.703125 40.55078125 C-0.703125 41.21078125 -0.703125 41.87078125 -0.703125 42.55078125 C-9.2481678 45.39912885 -17.46462985 45.58952236 -25.703125 41.55078125 C-28.50711375 39.17211664 -30.61036163 36.56203521 -32.703125 33.55078125 C-33.3425 32.66390625 -33.981875 31.77703125 -34.640625 30.86328125 C-36.97137471 23.59682626 -36.57297506 15.59850827 -33.703125 8.55078125 C-30.12426282 2.9442665 -25.18711524 -1.12195764 -18.75 -3.02734375 C-11.68626452 -4.48322816 -6.31636785 -3.48184874 0 0 Z " fill="#691B49" transform="translate(627.703125,634.44921875)"/>
<path d="M0 0 C5.61799102 4.43876914 9.45068104 9.3168584 10.34375 16.57421875 C10.51687064 25.00621216 9.37851039 30.85744107 3.515625 37.11328125 C-1.93353821 41.97295715 -6.96414304 43.96402142 -14.21484375 43.80859375 C-15.42527344 43.793125 -16.63570312 43.77765625 -17.8828125 43.76171875 C-21.02734375 43.55859375 -21.02734375 43.55859375 -24.02734375 42.55859375 C-24.02734375 41.89859375 -24.02734375 41.23859375 -24.02734375 40.55859375 C-24.6203125 40.45289063 -25.21328125 40.3471875 -25.82421875 40.23828125 C-28.33227971 39.46451776 -29.44852109 38.54012584 -31.27734375 36.68359375 C-32.05851563 35.91402344 -32.05851563 35.91402344 -32.85546875 35.12890625 C-34.02734375 33.55859375 -34.02734375 33.55859375 -34.02734375 30.55859375 C-34.68734375 30.55859375 -35.34734375 30.55859375 -36.02734375 30.55859375 C-38.02579437 24.56324188 -38.11088981 16.39669666 -36.37890625 10.26171875 C-33.41484658 4.7389409 -28.53654612 -0.30980518 -22.83984375 -2.87890625 C-14.4920045 -4.11055466 -7.33651692 -4.7001642 0 0 Z " fill="#691A49" transform="translate(629.02734375,359.44140625)"/>
<path d="M0 0 C0.79921875 0.00902344 1.5984375 0.01804688 2.421875 0.02734375 C3.02515625 0.03894531 3.6284375 0.05054688 4.25 0.0625 C4.25 0.7225 4.25 1.3825 4.25 2.0625 C5.24 2.083125 6.23 2.10375 7.25 2.125 C13.19316067 2.94641245 17.14578195 7.64854892 20.921875 11.98046875 C24.38982077 17.41698373 23.80701021 24.86273416 23.25 31.0625 C21.48294389 37.72553959 16.83368318 42.25927428 11.25 46.0625 C3.57131361 49.27358704 -4.0271192 48.69156581 -11.75 46.0625 C-11.75 45.4025 -11.75 44.7425 -11.75 44.0625 C-12.34554687 43.97613281 -12.94109375 43.88976562 -13.5546875 43.80078125 C-16.36288641 42.85638695 -17.17641215 41.64669856 -18.875 39.25 C-19.37257812 38.56292969 -19.87015625 37.87585938 -20.3828125 37.16796875 C-24.5819624 30.7012779 -24.60876664 24.69134925 -23.75 17.0625 C-22.47121569 13.73409623 -20.8690193 10.92317606 -18.75 8.0625 C-18.09 8.0625 -17.43 8.0625 -16.75 8.0625 C-16.75 7.4025 -16.75 6.7425 -16.75 6.0625 C-15.140625 4.80859375 -15.140625 4.80859375 -13 3.5 C-12.30390625 3.06558594 -11.6078125 2.63117188 -10.890625 2.18359375 C-7.22659125 0.26465637 -4.10260325 -0.0603324 0 0 Z " fill="#691A49" transform="translate(229.75,244.9375)"/>
<path d="M0 0 C4.45028771 3.46763395 7.58113624 7.25582677 9.08984375 12.74609375 C9.90477203 19.45875044 10.02567376 26.01498031 6.49609375 31.96484375 C2.99593502 36.39837814 -1.54875809 40.76247 -6.91015625 42.74609375 C-21.52491807 44.09322078 -21.52491807 44.09322078 -27.09765625 41.12109375 C-33.30392345 35.88024589 -37.44240329 30.58334391 -38.23046875 22.43359375 C-38.45696778 15.30642439 -38.47864802 10.34249617 -33.91015625 4.74609375 C-24.37339624 -5.11532192 -11.90379847 -7.81414991 0 0 Z " fill="#691B4A" transform="translate(243.91015625,415.25390625)"/>
<path d="M0 0 C1.31226563 0.00644531 2.62453125 0.01289063 3.9765625 0.01953125 C7.375 0.1875 7.375 0.1875 10.375 1.1875 C10.375 1.8475 10.375 2.5075 10.375 3.1875 C11.25285156 3.33832031 11.25285156 3.33832031 12.1484375 3.4921875 C16.22356947 4.76477257 18.76605228 7.9213866 21.375 11.1875 C24.27681498 17.6219593 24.81658662 26.07310041 22.46484375 32.78515625 C19.09853917 39.26881041 14.43168931 43.9848986 7.4921875 46.68359375 C1.50806044 48.10786015 -4.53504443 47.73568507 -10.4375 46.1875 C-15.31530248 43.12691805 -19.87306008 39.16991339 -21.3203125 33.4296875 C-21.42085937 32.68976563 -21.52140625 31.94984375 -21.625 31.1875 C-22.285 31.1875 -22.945 31.1875 -23.625 31.1875 C-23.7066082 28.81179457 -23.76577222 26.43894159 -23.8125 24.0625 C-23.83763672 23.39734375 -23.86277344 22.7321875 -23.88867188 22.046875 C-23.97534036 16.15341817 -22.47248969 12.42922389 -18.7578125 7.921875 C-18.09523437 7.26703125 -17.43265625 6.6121875 -16.75 5.9375 C-15.76386719 4.93976563 -15.76386719 4.93976563 -14.7578125 3.921875 C-10.07360607 0.1127401 -5.92914128 -0.06432007 0 0 Z " fill="#691A49" transform="translate(229.625,300.8125)"/>
<path d="M0 0 C5.23621588 4.29540758 8.42222392 8.06995507 9.40625 15.00390625 C9.53916328 23.5369386 8.90364392 29.15318193 2.90234375 35.453125 C0.33984375 37.828125 0.33984375 37.828125 -2.09765625 39.453125 C-2.81566406 39.97648437 -3.53367187 40.49984375 -4.2734375 41.0390625 C-7.92631145 42.86802567 -10.65662575 42.78332284 -14.72265625 42.703125 C-16.03492188 42.68765625 -17.3471875 42.6721875 -18.69921875 42.65625 C-22.09765625 42.453125 -22.09765625 42.453125 -25.09765625 41.453125 C-25.09765625 40.793125 -25.09765625 40.133125 -25.09765625 39.453125 C-25.69449219 39.35257812 -26.29132812 39.25203125 -26.90625 39.1484375 C-31.77712397 37.60295521 -34.50038008 32.4684945 -36.97265625 28.265625 C-38.92183108 21.66008808 -39.42921012 14.55245126 -36.53515625 8.140625 C-33.38466202 2.8269393 -29.53494496 -1.46884345 -23.84765625 -3.984375 C-14.98424476 -5.31388672 -7.50443732 -5.53399847 0 0 Z " fill="#691A49" transform="translate(685.09765625,360.546875)"/>
<path d="M0 0 C0.66902344 0.27199219 1.33804688 0.54398437 2.02734375 0.82421875 C4.53926486 2.32142321 5.61952965 3.98275979 7.1875 6.4375 C7.69667969 7.21996094 8.20585938 8.00242187 8.73046875 8.80859375 C11.85974691 14.21020929 11.42572827 19.93731407 11 26 C8.91028102 33.08182542 4.64700202 37.75580264 -0.875 42.4375 C-7.03688101 45.62896752 -16.87614398 45.18585844 -23.41796875 43.3046875 C-28.87354199 40.43840399 -33.27536385 34.95768387 -35.4921875 29.25 C-36.9100241 22.96789321 -37.50405529 14.95044837 -34.5 9.0625 C-24.93388503 -2.65599083 -14.09364833 -6.31784235 0 0 Z " fill="#691949" transform="translate(628,414)"/>
<path d="M0 0 C1.18722656 0.00386719 2.37445312 0.00773437 3.59765625 0.01171875 C9.16385402 0.51300206 12.42059385 2.39029454 16.5625 6.0625 C17.31789063 6.71734375 18.07328125 7.3721875 18.8515625 8.046875 C24.33105093 13.99837928 24.57488817 19.81319213 24.421875 27.6015625 C23.54562306 34.31478301 20.20492908 38.10321012 15.5 42.6875 C8.37789648 47.20395589 2.38356663 48.47671725 -6.0625 47.3125 C-12.23651492 45.13998949 -16.37289953 41.62986538 -20.0625 36.3125 C-20.660625 35.466875 -21.25875 34.62125 -21.875 33.75 C-23.93855058 27.7765641 -24.10495434 20.78216147 -22.27734375 14.69921875 C-20.9028688 11.99888372 -19.32208009 9.9541194 -17.3125 7.6875 C-16.65765625 6.93210937 -16.0028125 6.17671875 -15.328125 5.3984375 C-10.56564613 1.01367247 -6.39055821 -0.09039963 0 0 Z " fill="#691A49" transform="translate(670.0625,300.6875)"/>
<path d="M0 0 C3.6113598 3.13496766 5.03293374 6.02167169 6.625 10.5 C8.19479309 14.9427223 8.19479309 14.9427223 10.1484375 19.21875 C11 21 11 21 11 24 C11.66 24 12.32 24 13 24 C13.67528223 25.57967807 14.33989694 27.16391903 15 28.75 C15.37125 29.63171875 15.7425 30.5134375 16.125 31.421875 C17 34 17 34 17 38 C6.11 38 -4.78 38 -16 38 C-12.66292135 27.98876404 -12.66292135 27.98876404 -10.6875 23.875 C-7.49585989 17.0343811 -4.75817355 10.02339037 -2 3 C-1.34 3 -0.68 3 0 3 C0 2.01 0 1.02 0 0 Z " fill="#F8F4F7" transform="translate(487,581)"/>
<path d="M0 0 C9.9 0 19.8 0 30 0 C30 2.31 30 4.62 30 7 C29.67 7.33 29.34 7.66 29 8 C28.63239269 10.32817964 28.29758419 12.6618385 28 15 C27.67 15 27.34 15 27 15 C26.505 10.05 26.505 10.05 26 5 C25.01 5 24.02 5 23 5 C23 4.34 23 3.68 23 3 C12.11 3.495 12.11 3.495 1 4 C0.67 2.68 0.34 1.36 0 0 Z " fill="#661E49" transform="translate(371,543)"/>
<path d="M0 0 C-0.66 0.66 -1.32 1.32 -2 2 C-2 1.34 -2 0.68 -2 0 C-2.969375 0.185625 -3.93875 0.37125 -4.9375 0.5625 C-5.948125 0.706875 -6.95875 0.85125 -8 1 C-8.33 0.67 -8.66 0.34 -9 0 C-14.6047709 -0.21326403 -14.6047709 -0.21326403 -20 1 C-20.33 1.66 -20.66 2.32 -21 3 C-22.98636298 3.70626239 -24.98848259 4.36893571 -27 5 C-28.34721283 5.63815344 -29.68747118 6.29325371 -31 7 C-31 7.66 -31 8.32 -31 9 C-31.66 9 -32.32 9 -33 9 C-30.60529046 3.57668722 -26.45938106 0.20236408 -21.1875 -2.375 C-13.38236791 -3.90541806 -7.24289339 -3.21906373 0 0 Z " fill="#723358" transform="translate(628,414)"/>
<path d="M0 0 C2 3 2 3 2 5 C-8.56 5 -19.12 5 -30 5 C-28 3 -28 3 -25.20263672 2.77294922 C-24.04006348 2.78342285 -22.87749023 2.79389648 -21.6796875 2.8046875 C-19.79443359 2.81435547 -19.79443359 2.81435547 -17.87109375 2.82421875 C-15.89302734 2.84935547 -15.89302734 2.84935547 -13.875 2.875 C-12.53516279 2.88503017 -11.19531848 2.89415596 -9.85546875 2.90234375 C-6.57013427 2.92597925 -3.28515535 2.95892766 0 3 C0 2.01 0 1.02 0 0 Z " fill="#5F1442" transform="translate(450,673)"/>
<path d="M0 0 C0.93423645 3.01031744 1.04449911 3.86650268 0 7 C7.59 7 15.18 7 23 7 C23 7.66 23 8.32 23 9 C14.75 9 6.5 9 -2 9 C-1 1 -1 1 0 0 Z " fill="#5E1441" transform="translate(374,669)"/>
<path d="M0 0 C4.62 0 9.24 0 14 0 C14 0.33 14 0.66 14 1 C12.77023437 1.09087891 12.77023437 1.09087891 11.515625 1.18359375 C9.89914062 1.30927734 9.89914062 1.30927734 8.25 1.4375 C7.18265625 1.51871094 6.1153125 1.59992188 5.015625 1.68359375 C2.56320038 1.94090773 0.36078709 2.31812218 -2 3 C-2 4.32 -2 5.64 -2 7 C-4.75 9.8125 -4.75 9.8125 -8 12 C-10.203125 11.63671875 -10.203125 11.63671875 -12 11 C-10.95285076 9.67522041 -9.88655331 8.36556254 -8.8125 7.0625 C-8.22082031 6.33160156 -7.62914062 5.60070312 -7.01953125 4.84765625 C-4.67494797 2.70261197 -3.11608502 2.33905588 0 2 C0 1.34 0 0.68 0 0 Z " fill="#814568" transform="translate(662,466)"/>
<path d="M0 0 C0 0.66 0 1.32 0 2 C-2.5614657 4.29648649 -3.47967572 5 -7 5 C-6.87625 6.11375 -6.87625 6.11375 -6.75 7.25 C-7 10 -7 10 -8.75 12.25 C-10.94424728 13.95663677 -12.28438663 14.61205523 -15 15 C-13.04465538 8.95620753 -7.19134147 0 0 0 Z " fill="#6F2B53" transform="translate(663,412)"/>
<path d="M0 0 C2.91691525 -0.05401695 5.83282724 -0.09368066 8.75 -0.125 C9.575 -0.14175781 10.4 -0.15851562 11.25 -0.17578125 C12.04921875 -0.18222656 12.8484375 -0.18867187 13.671875 -0.1953125 C14.4050293 -0.20578613 15.13818359 -0.21625977 15.89355469 -0.22705078 C18.29896076 0.03222456 19.91251494 0.80774075 22 2 C19.69 1.67 17.38 1.34 15 1 C15 1.66 15 2.32 15 3 C10.05 3 5.1 3 0 3 C0 2.01 0 1.02 0 0 Z " fill="#F7F0F5" transform="translate(266,559)"/>
<path d="M0 0 C9.9 0 19.8 0 30 0 C30 2.31 30 4.62 30 7 C29.67 7.33 29.34 7.66 29 8 C28.63239269 10.32817964 28.29758419 12.6618385 28 15 C27.67 15 27.34 15 27 15 C27 11.37 27 7.74 27 4 C27.66 4 28.32 4 29 4 C29 3.01 29 2.02 29 1 C19.43 1 9.86 1 0 1 C0 0.67 0 0.34 0 0 Z " fill="#A68295" transform="translate(371,543)"/>
<path d="M0 0 C0.66 0.33 1.32 0.66 2 1 C1.1875 3.4375 1.1875 3.4375 0 6 C-0.99 6.33 -1.98 6.66 -3 7 C-3 7.99 -3 8.98 -3 10 C-3.66 10 -4.32 10 -5 10 C-5 14.62 -5 19.24 -5 24 C-5.33 24 -5.66 24 -6 24 C-7.03368414 8.22674565 -7.03368414 8.22674565 -3 3 C-1.3125 1.1875 -1.3125 1.1875 0 0 Z " fill="#885272" transform="translate(377,198)"/>
<path d="M0 0 C1.65 0 3.3 0 5 0 C4 3 4 3 1 5 C0.01 5 -0.98 5 -2 5 C-2 5.66 -2 6.32 -2 7 C-4.41734542 7.08117951 -6.83194949 7.14056926 -9.25 7.1875 C-9.93191406 7.21263672 -10.61382813 7.23777344 -11.31640625 7.26367188 C-16.02342814 7.33222074 -17.0208846 6.98433655 -21 4 C-15.39 4.66 -9.78 5.32 -4 6 C-4 5.34 -4 4.68 -4 4 C-2.68 4 -1.36 4 0 4 C0 2.68 0 1.36 0 0 Z " fill="#895071" transform="translate(625,617)"/>
<path d="M0 0 C0.99 0 1.98 0 3 0 C2.71125 0.556875 2.4225 1.11375 2.125 1.6875 C0.9586747 4.08494645 -0.0339881 6.51596939 -1 9 C-1.66 9 -2.32 9 -3 9 C-2.67 13.62 -2.34 18.24 -2 23 C-2.66 22.67 -3.32 22.34 -4 22 C-4.10871967 19.45716766 -4.18762401 16.91904912 -4.25 14.375 C-4.28351563 13.66214844 -4.31703125 12.94929688 -4.3515625 12.21484375 C-4.4463541 7.04870169 -3.53349333 4.02919923 0 0 Z " fill="#8A5876" transform="translate(375,255)"/>
<path d="M0 0 C0.33 0.66 0.66 1.32 1 2 C1.66 2 2.32 2 3 2 C3 3.98 3 5.96 3 8 C1.68 8 0.36 8 -1 8 C-1 11.96 -1 15.92 -1 20 C-1.33 20 -1.66 20 -2 20 C-2.05425226 17.60385874 -2.09379027 15.20896147 -2.125 12.8125 C-2.14175781 12.13896484 -2.15851563 11.46542969 -2.17578125 10.77148438 C-2.21538674 6.71192193 -1.80020002 3.65001185 0 0 Z M3 0 C3.99 0.495 3.99 0.495 5 1 C4.01 1.495 4.01 1.495 3 2 C3 1.34 3 0.68 3 0 Z " fill="#79385E" transform="translate(208,312)"/>
<path d="M0 0 C0.02701408 2.10409639 0.04640223 4.20829178 0.0625 6.3125 C0.07410156 7.48425781 0.08570313 8.65601563 0.09765625 9.86328125 C0 13 0 13 -1 16 C-1.66 16 -2.32 16 -3 16 C-3 11.05 -3 6.1 -3 1 C-1 0 -1 0 0 0 Z " fill="#631A45" transform="translate(473,263)"/>
<path d="M0 0 C0.66 0.33 1.32 0.66 2 1 C1.59007812 1.51949219 1.18015625 2.03898438 0.7578125 2.57421875 C-2.07636576 6.2423777 -4.59828033 9.51449706 -6 14 C-6.66 14 -7.32 14 -8 14 C-8.33 14.66 -8.66 15.32 -9 16 C-9 8.63725265 -5.01714403 5.04000118 0 0 Z " fill="#7C4362" transform="translate(546,194)"/>
<path d="M0 0 C0.99 0 1.98 0 3 0 C3 0.66 3 1.32 3 2 C3.58265625 2.10183594 4.1653125 2.20367187 4.765625 2.30859375 C7.37219275 3.11517153 8.73535414 4.24157009 10.75 6.0625 C11.67039062 6.88427734 11.67039062 6.88427734 12.609375 7.72265625 C13.06828125 8.14417969 13.5271875 8.56570312 14 9 C13.67 9.66 13.34 10.32 13 11 C10.03824877 10.38722388 8.61941217 9.74627478 6 8 C5.3125 5.375 5.3125 5.375 5 3 C4.01 3 3.02 3 2 3 C2 2.34 2 1.68 2 1 C1.34 0.67 0.68 0.34 0 0 Z " fill="#743258" transform="translate(401,191)"/>
<path d="M0 0 C0.70125 0.12375 1.4025 0.2475 2.125 0.375 C1.135 0.87 1.135 0.87 0.125 1.375 C0.125 2.035 0.125 2.695 0.125 3.375 C-1.86830842 4.71831654 -3.86884866 6.05094012 -5.875 7.375 C-6.865 8.86 -6.865 8.86 -7.875 10.375 C-8.865 10.375 -9.855 10.375 -10.875 10.375 C-9.00554874 5.51442673 -5.30449457 0.6918906 0 0 Z " fill="#723559" transform="translate(604.875,468.625)"/>
<path d="M0 0 C0.79921875 0.00902344 1.5984375 0.01804688 2.421875 0.02734375 C3.02515625 0.03894531 3.6284375 0.05054688 4.25 0.0625 C4.25 0.7225 4.25 1.3825 4.25 2.0625 C3.26 2.5575 3.26 2.5575 2.25 3.0625 C2.25 3.7225 2.25 4.3825 2.25 5.0625 C-0.06 5.0625 -2.37 5.0625 -4.75 5.0625 C-4.42 4.4025 -4.09 3.7425 -3.75 3.0625 C-5.73 3.0625 -7.71 3.0625 -9.75 3.0625 C-8.75 1.0625 -8.75 1.0625 -6.984375 0.44140625 C-4.60849677 0.03850382 -2.40820483 -0.03541478 0 0 Z " fill="#8B4D71" transform="translate(229.75,244.9375)"/>
<path d="M0 0 C1.18851563 0.00902344 2.37703125 0.01804687 3.6015625 0.02734375 C4.51679687 0.03894531 5.43203125 0.05054688 6.375 0.0625 C5.715 1.3825 5.055 2.7025 4.375 4.0625 C1.405 4.0625 -1.565 4.0625 -4.625 4.0625 C-4.625 3.4025 -4.625 2.7425 -4.625 2.0625 C-5.945 1.7325 -7.265 1.4025 -8.625 1.0625 C-5.74084117 -0.37957941 -3.20778472 -0.03144887 0 0 Z " fill="#814468" transform="translate(670.625,520.9375)"/>
<path d="M0 0 C0 3.48396735 -0.92651578 5.14001615 -3.20849609 7.74316406 C-6.92232097 10.34861111 -11.46550547 9.60271362 -15.8125 9.375 C-16.79154297 9.34792969 -17.77058594 9.32085937 -18.77929688 9.29296875 C-21.18846621 9.22245648 -23.59308819 9.12398568 -26 9 C-26 8.67 -26 8.34 -26 8 C-24.49759766 7.94392578 -24.49759766 7.94392578 -22.96484375 7.88671875 C-11.37360254 7.50677033 -11.37360254 7.50677033 -1.5625 1.8125 C-1.046875 1.214375 -0.53125 0.61625 0 0 Z " fill="#C7A5B8" transform="translate(523,229)"/>
<path d="M0 0 C5.34021246 1.50193475 9.13647744 5.17482506 13 9 C13 9.33 13 9.66 13 10 C11.02 10 9.04 10 7 10 C7.33 8.68 7.66 7.36 8 6 C5.03 5.505 5.03 5.505 2 5 C2.33 4.01 2.66 3.02 3 2 C2.01 2 1.02 2 0 2 C0 1.34 0 0.68 0 0 Z " fill="#6F2F54" transform="translate(678,412)"/>
<path d="M0 0 C0.99 0.33 1.98 0.66 3 1 C2.34 1 1.68 1 1 1 C1 1.66 1 2.32 1 3 C0.01 3 -0.98 3 -2 3 C-2.33 3.99 -2.66 4.98 -3 6 C-3.66 6 -4.32 6 -5 6 C-5.2475 6.639375 -5.495 7.27875 -5.75 7.9375 C-7 10 -7 10 -9.125 10.75 C-10.053125 10.87375 -10.053125 10.87375 -11 11 C-8.2752139 5.83724739 -4.79023219 3.19348813 0 0 Z " fill="#804B6A" transform="translate(606,191)"/>
<path d="M0 0 C2.02558881 3.34939881 2.21738987 5.86962551 2.125 9.75 C2.10695313 10.73484375 2.08890625 11.7196875 2.0703125 12.734375 C2.04710937 13.48203125 2.02390625 14.2296875 2 15 C1.01 15.33 0.02 15.66 -1 16 C-1.09688221 10.55306686 -1.12862175 5.36095333 0 0 Z " fill="#FCF6FB" transform="translate(522,663)"/>
<path d="M0 0 C1.65 0.33 3.3 0.66 5 1 C5 1.99 5 2.98 5 4 C1.99686252 5.50156874 -0.79067522 5.09281204 -4.125 5.0625 C-5.40632813 5.05347656 -6.68765625 5.04445313 -8.0078125 5.03515625 C-9.48894531 5.01775391 -9.48894531 5.01775391 -11 5 C-11 4.67 -11 4.34 -11 4 C-8.03 4 -5.06 4 -2 4 C-1.34 2.68 -0.68 1.36 0 0 Z " fill="#611441" transform="translate(290,452)"/>
<path d="M0 0 C-4.95 0 -9.9 0 -15 0 C-15.33 0.99 -15.66 1.98 -16 3 C-17.32 2.34 -18.64 1.68 -20 1 C-13.06489904 -2.54132815 -7.13490697 -3.56745348 0 0 Z " fill="#996A84" transform="translate(348,247)"/>
<path d="M0 0 C1.77007714 -0.08114106 3.54122098 -0.13925505 5.3125 -0.1875 C6.29863281 -0.22230469 7.28476562 -0.25710938 8.30078125 -0.29296875 C11 0 11 0 14 3 C9.05 3 4.1 3 -1 3 C-0.67 2.01 -0.34 1.02 0 0 Z " fill="#723455" transform="translate(278,411)"/>
<path d="M0 0 C0.556875 0.268125 1.11375 0.53625 1.6875 0.8125 C-0.625 3.3125 -0.625 3.3125 -3.3125 5.8125 C-4.3025 5.8125 -5.2925 5.8125 -6.3125 5.8125 C-6.6425 7.1325 -6.9725 8.4525 -7.3125 9.8125 C-7.9725 9.8125 -8.6325 9.8125 -9.3125 9.8125 C-7.92024522 5.38259844 -5.31574828 -0.43100662 0 0 Z " fill="#773E5E" transform="translate(658.3125,525.1875)"/>
<path d="M0 0 C0.33 0 0.66 0 1 0 C1.33 5.94 1.66 11.88 2 18 C1.01 18.33 0.02 18.66 -1 19 C-1 19.99 -1 20.98 -1 22 C-1.99 22 -2.98 22 -4 22 C-2.125 17.25 -2.125 17.25 -1 15 C-0.76827173 12.45384991 -0.58105471 9.92603775 -0.4375 7.375 C-0.39431641 6.66859375 -0.35113281 5.9621875 -0.30664062 5.234375 C-0.20055249 3.48981463 -0.09977111 1.74493303 0 0 Z " fill="#EDD9E6" transform="translate(694,372)"/>
<path d="M0 0 C0.66 0 1.32 0 2 0 C2.33 1.65 2.66 3.3 3 5 C3.99 5 4.98 5 6 5 C7.33332095 7.6666419 6.67102033 9.16680303 6 12 C5.01 11.34 4.02 10.68 3 10 C3 9.01 3 8.02 3 7 C2.34 7 1.68 7 1 7 C0.67 4.69 0.34 2.38 0 0 Z " fill="#743257" transform="translate(592,383)"/>
<path d="M0 0 C4.62 0 9.24 0 14 0 C14 0.66 14 1.32 14 2 C11.35541621 3.32229189 9.32238699 3.09677194 6.375 3.0625 C5.37210937 3.05347656 4.36921875 3.04445313 3.3359375 3.03515625 C2.56507813 3.02355469 1.79421875 3.01195312 1 3 C0.67 2.01 0.34 1.02 0 0 Z " fill="#6D2D51" transform="translate(388,290)"/>
<path d="M0 0 C1.64696604 0.4752588 3.29254728 0.95531891 4.9375 1.4375 C6.31228516 1.83775391 6.31228516 1.83775391 7.71484375 2.24609375 C10 3 10 3 11 4 C13.01594582 4.23427778 15.038474 4.41336124 17.0625 4.5625 C18.16722656 4.64628906 19.27195312 4.73007813 20.41015625 4.81640625 C21.26480469 4.87699219 22.11945313 4.93757812 23 5 C23 5.33 23 5.66 23 6 C7.08975158 6.93224112 7.08975158 6.93224112 0 1 C0 0.67 0 0.34 0 0 Z " fill="#93627E" transform="translate(324,232)"/>
<path d="M0 0 C0.625 3.0625 0.625 3.0625 1 6 C0.01 6.33 -0.98 6.66 -2 7 C-4 5.1875 -4 5.1875 -6 3 C-6 2.01 -6 1.02 -6 0 C-2.25 -1.125 -2.25 -1.125 0 0 Z " fill="#E9D6E1" transform="translate(308,675)"/>
<path d="M0 0 C4.72763768 2.73152399 6.92642516 4.93126149 9 10 C6.525 9.01 6.525 9.01 4 8 C4 7.34 4 6.68 4 6 C3.34 6 2.68 6 2 6 C1.34 4.02 0.68 2.04 0 0 Z " fill="#6E2D53" transform="translate(683,525)"/>
<path d="M0 0 C4.62 0 9.24 0 14 0 C14 0.66 14 1.32 14 2 C10.98509443 3.00496852 8.95818308 3.10335303 5.8125 3.0625 C4.91144531 3.05347656 4.01039063 3.04445313 3.08203125 3.03515625 C2.39496094 3.02355469 1.70789063 3.01195312 1 3 C0.67 2.01 0.34 1.02 0 0 Z " fill="#6C2C4F" transform="translate(278,290)"/>
<path d="M0 0 C0.33 0 0.66 0 1 0 C1 4.62 1 9.24 1 14 C-2.16865168 9.7751311 -2.5180479 8.9732598 -2 4 C-1 1.625 -1 1.625 0 0 Z " fill="#F5E8EF" transform="translate(205,262)"/>
<path d="M0 0 C0 3 0 3 -1.0625 4.5625 C-3.81271494 6.60298205 -6.70559704 7.1919389 -10 8 C-5 1.42857143 -5 1.42857143 0 0 Z " fill="#6D2E51" transform="translate(441,192)"/>
<path d="M0 0 C6.6 0.33 13.2 0.66 20 1 C20 1.99 20 2.98 20 4 C19.24783203 3.76603516 19.24783203 3.76603516 18.48046875 3.52734375 C14.45016534 2.67050759 10.33290546 2.63998983 6.22460938 2.48242188 C4.47803462 2.39140077 2.73709406 2.20325467 1 2 C0.67 1.34 0.34 0.68 0 0 Z " fill="#ECD2E1" transform="translate(260,680)"/>
<path d="M0 0 C0.66386719 0.15339844 1.32773437 0.30679688 2.01171875 0.46484375 C5.60155922 1.10773021 9.17795419 1.35033991 12.8125 1.5625 C13.85180664 1.62727539 13.85180664 1.62727539 14.91210938 1.69335938 C16.60788686 1.79861453 18.30392052 1.89972863 20 2 C20 2.33 20 2.66 20 3 C13.73 3 7.46 3 1 3 C0.67 2.01 0.34 1.02 0 0 Z " fill="#794061" transform="translate(263,662)"/>
<path d="M0 0 C0.33 0.66 0.66 1.32 1 2 C3.52733235 2.65555119 3.52733235 2.65555119 6 3 C5.67 3.99 5.34 4.98 5 6 C5 5.34 5 4.68 5 4 C3.4840625 4.061875 3.4840625 4.061875 1.9375 4.125 C-2.18076052 3.99426157 -5.11830533 3.26749214 -9 2 C-9 1.67 -9 1.34 -9 1 C-2.25 0 -2.25 0 0 0 Z " fill="#D7BCCC" transform="translate(338,695)"/>
<path d="M0 0 C0.66 0.33 1.32 0.66 2 1 C-1.61328125 5.6875 -1.61328125 5.6875 -3 7 C-3.99 7 -4.98 7 -6 7 C-6 7.66 -6 8.32 -6 9 C-6.66 8.67 -7.32 8.34 -8 8 C-6.71937515 6.2925002 -5.38232443 4.62626404 -4 3 C-3.34 3 -2.68 3 -2 3 C-2 2.34 -2 1.68 -2 1 C-1.34 0.67 -0.68 0.34 0 0 Z " fill="#7C4264" transform="translate(658,579)"/>
<path d="M0 0 C0.66 0.99 1.32 1.98 2 3 C1.34 3 0.68 3 0 3 C-0.0825 4.27875 -0.165 5.5575 -0.25 6.875 C-0.51171875 9.0859375 -0.51171875 9.0859375 -1 11 C-3.0625 12.5 -3.0625 12.5 -5 13 C-3.58192622 8.52761347 -1.88695626 4.28853694 0 0 Z " fill="#773C5D" transform="translate(450,621)"/>
<path d="M0 0 C0.66 0.33 1.32 0.66 2 1 C1.34 2.65 0.68 4.3 0 6 C-0.99 6 -1.98 6 -3 6 C-3 6.66 -3 7.32 -3 8 C-3.99 7.67 -4.98 7.34 -6 7 C-4.02 4.69 -2.04 2.38 0 0 Z " fill="#743659" transform="translate(270,415)"/>
<path d="M0 0 C0.66 0.33 1.32 0.66 2 1 C2 1.99 2 2.98 2 4 C0.03533587 5.06775224 -1.96855359 6.06553465 -4 7 C-4.66 6.67 -5.32 6.34 -6 6 C-5.34 5.01 -4.68 4.02 -4 3 C-3.34 3 -2.68 3 -2 3 C-2 2.34 -2 1.68 -2 1 C-1.34 0.67 -0.68 0.34 0 0 Z " fill="#76385B" transform="translate(658,193)"/>
<path d="M0 0 C1 2 1 2 0.375 4.3125 C-1.26624041 7.52037899 -3.36337053 9.57152549 -6 12 C-6.66 11.34 -7.32 10.68 -8 10 C-7.236875 9.278125 -6.47375 8.55625 -5.6875 7.8125 C-3.28866409 5.30209033 -1.64589779 3.03191698 0 0 Z " fill="#E4D0DC" transform="translate(637,609)"/>
<path d="M0 0 C0.33 0 0.66 0 1 0 C1.3690205 12.66970387 1.3690205 12.66970387 -1 18 C-1.66 18 -2.32 18 -3 18 C-2.690625 16.88625 -2.38125 15.7725 -2.0625 14.625 C-0.84199336 9.79490988 -0.38600363 4.95709931 0 0 Z " fill="#DABFCE" transform="translate(639,539)"/>
<path d="M0 0 C0.66 1.32 1.32 2.64 2 4 C0.50260417 5.23697917 -0.99479167 6.47395833 -2.4921875 7.7109375 C-3.71051161 8.75250992 -4.86660097 9.86660097 -6 11 C-6 10.34 -6 9.68 -6 9 C-6.66 8.67 -7.32 8.34 -8 8 C-6.35 7.34 -4.7 6.68 -3 6 C-3 5.34 -3 4.68 -3 4 C-2.34 4 -1.68 4 -1 4 C-0.67 2.68 -0.34 1.36 0 0 Z " fill="#E3CDDC" transform="translate(580,226)"/>
<path d="M0 0 C2.5 1.375 2.5 1.375 5 3 C5 3.66 5 4.32 5 5 C1.37 5 -2.26 5 -6 5 C-6 4.67 -6 4.34 -6 4 C-4.35 3.67 -2.7 3.34 -1 3 C-0.67 2.01 -0.34 1.02 0 0 Z " fill="#5B113D" transform="translate(451,232)"/>
<path d="M0 0 C0.33 0 0.66 0 1 0 C1.4375 2.0625 1.4375 2.0625 1 5 C-1.12080183 7.57260172 -3.50627561 9.79254499 -6 12 C-6.66 11.34 -7.32 10.68 -8 10 C-7.05125 9.278125 -6.1025 8.55625 -5.125 7.8125 C-2.32587438 5.50190102 -1.01482442 3.55188548 0 0 Z " fill="#E8D5E0" transform="translate(636,224)"/>
<path d="M0 0 C0.99 0 1.98 0 3 0 C3 1.98 3 3.96 3 6 C1.68 5.34 0.36 4.68 -1 4 C-1 4.66 -1 5.32 -1 6 C-1.66 5.67 -2.32 5.34 -3 5 C-1.6875 2.5 -1.6875 2.5 0 0 Z " fill="#6E2A52" transform="translate(427,667)"/>
<path d="M0 0 C0.99 0 1.98 0 3 0 C2.34 1.32 1.68 2.64 1 4 C0.34 4 -0.32 4 -1 4 C-1.33 5.98 -1.66 7.96 -2 10 C-2.33 10 -2.66 10 -3 10 C-3 7.03 -3 4.06 -3 1 C-2.01 1.495 -2.01 1.495 -1 2 C-0.67 1.34 -0.34 0.68 0 0 Z " fill="#7B3D61" transform="translate(486,580)"/>
<path d="M0 0 C-0.55774272 3.23490776 -1.37211508 4.97855006 -4 7 C-4.99 7 -5.98 7 -7 7 C-3.86206897 0 -3.86206897 0 0 0 Z " fill="#76385D" transform="translate(548,249)"/>
<path d="M0 0 C-0.99 1.485 -0.99 1.485 -2 3 C-3.32 3 -4.64 3 -6 3 C-6 2.34 -6 1.68 -6 1 C-7.98 1 -9.96 1 -12 1 C-12 0.67 -12 0.34 -12 0 C-10.56359829 -0.19573608 -9.12580496 -0.38127816 -7.6875 -0.5625 C-6.88699219 -0.66691406 -6.08648437 -0.77132812 -5.26171875 -0.87890625 C-3 -1 -3 -1 0 0 Z " fill="#F1E6EC" transform="translate(404,238)"/>
<path d="M0 0 C1.98 0 3.96 0 6 0 C6 0.99 6 1.98 6 3 C8.31 3 10.62 3 13 3 C13 3.33 13 3.66 13 4 C7.66404866 4.27131956 4.38616179 4.4266889 0 1 C0 0.67 0 0.34 0 0 Z " fill="#7A4362" transform="translate(657,509)"/>
<path d="M0 0 C0.66 1.32 1.32 2.64 2 4 C1.01 4.495 1.01 4.495 0 5 C-1.13350534 7.01669827 -1.13350534 7.01669827 -2 9 C-3.32 8.67 -4.64 8.34 -6 8 C-4.73046875 6.50260417 -3.4609375 5.00520833 -2.19140625 3.5078125 C-0.9121848 1.99405921 -0.9121848 1.99405921 0 0 Z " fill="#E5D3E0" transform="translate(636,445)"/>
<path d="M0 0 C2.64 0 5.28 0 8 0 C7.34 1.32 6.68 2.64 6 4 C4.35 3.67 2.7 3.34 1 3 C0.67 2.01 0.34 1.02 0 0 Z " fill="#793A5F" transform="translate(386,246)"/>
<path d="M0 0 C0.99 0.33 1.98 0.66 3 1 C2.67 2.32 2.34 3.64 2 5 C0.35 5 -1.3 5 -3 5 C-2.01 3.35 -1.02 1.7 0 0 Z " fill="#621845" transform="translate(570,230)"/>
<path d="M0 0 C0.33 1.32 0.66 2.64 1 4 C0.01 4.66 -0.98 5.32 -2 6 C-3.21284876 9.05429073 -3.21284876 9.05429073 -4 12 C-5 10 -5 10 -4.25 7.125 C-3.11466579 4.28666446 -1.95916576 2.31537772 0 0 Z " fill="#875471" transform="translate(597,639)"/>
<path d="M0 0 C0.33 0 0.66 0 1 0 C1.06058594 0.84304688 1.12117187 1.68609375 1.18359375 2.5546875 C1.26738281 3.65039062 1.35117188 4.74609375 1.4375 5.875 C1.51871094 6.96554687 1.59992188 8.05609375 1.68359375 9.1796875 C1.83001703 11.94728971 1.83001703 11.94728971 3 14 C2.34 14.99 1.68 15.98 1 17 C-0.18681726 13.43954823 -0.09689832 10.56191663 -0.0625 6.8125 C-0.05347656 5.54019531 -0.04445312 4.26789063 -0.03515625 2.95703125 C-0.02355469 1.98121094 -0.01195312 1.00539063 0 0 Z " fill="#7A4262" transform="translate(206,372)"/>
<path d="M0 0 C5.66153846 1.47692308 5.66153846 1.47692308 7.375 4.125 C7.684375 5.053125 7.684375 5.053125 8 6 C6.35 5.01 4.7 4.02 3 3 C3 3.66 3 4.32 3 5 C2.01 4.67 1.02 4.34 0 4 C0 2.68 0 1.36 0 0 Z " fill="#874E71" transform="translate(460,248)"/>
<path d="M0 0 C3.55780196 0.60990891 6.6828589 1.5783681 10 3 C7 5 7 5 4 5 C3.896875 4.360625 3.79375 3.72125 3.6875 3.0625 C3.460625 2.381875 3.23375 1.70125 3 1 C2.01 0.67 1.02 0.34 0 0 Z " fill="#6F3155" transform="translate(398,246)"/>
<path d="M0 0 C0.33 0.66 0.66 1.32 1 2 C0.0625 4.625 0.0625 4.625 -1 7 C-1.66 7 -2.32 7 -3 7 C-3.33 8.32 -3.66 9.64 -4 11 C-4.33 10.34 -4.66 9.68 -5 9 C-4.2578125 7.08984375 -4.2578125 7.08984375 -3.125 4.9375 C-2.75632812 4.22464844 -2.38765625 3.51179687 -2.0078125 2.77734375 C-1 1 -1 1 0 0 Z " fill="#8C5572" transform="translate(266,198)"/>
<path d="M0 0 C1.37562854 1.28965176 2.70766393 2.62689293 4 4 C4 4.66 4 5.32 4 6 C3.34 6 2.68 6 2 6 C2 5.34 2 4.68 2 4 C1.01 4 0.02 4 -1 4 C-1 4.99 -1 5.98 -1 7 C-1.66 6.67 -2.32 6.34 -3 6 C-2.67 5.01 -2.34 4.02 -2 3 C-1.34 3 -0.68 3 0 3 C0 2.01 0 1.02 0 0 Z " fill="#E0C6D6" transform="translate(487,581)"/>
<path d="M0 0 C0 3 0 3 -1.5 4.6875 C-1.995 5.120625 -2.49 5.55375 -3 6 C-3.99 5.67 -4.98 5.34 -6 5 C-6.33 5.66 -6.66 6.32 -7 7 C-7.66 6.34 -8.32 5.68 -9 5 C-8.43410156 4.72285156 -7.86820313 4.44570313 -7.28515625 4.16015625 C-6.55167969 3.79792969 -5.81820312 3.43570312 -5.0625 3.0625 C-3.96615234 2.52302734 -3.96615234 2.52302734 -2.84765625 1.97265625 C-1.03750973 1.13628173 -1.03750973 1.13628173 0 0 Z " fill="#DBC4D3" transform="translate(631,507)"/>
<path d="M0 0 C0.33 1.32 0.66 2.64 1 4 C-0.32 4.99 -1.64 5.98 -3 7 C-3.66 6.34 -4.32 5.68 -5 5 C-3.35 3.35 -1.7 1.7 0 0 Z " fill="#69284D" transform="translate(325,195)"/>
<path d="M0 0 C1.9955516 3.99110319 2.19546065 5.69986566 2 10 C1.01 9.67 0.02 9.34 -1 9 C-0.67 6.03 -0.34 3.06 0 0 Z " fill="#EDDDE4" transform="translate(522,663)"/>
<path d="M0 0 C0 3.99904969 -1.72586967 5.80200422 -4 9 C-4.33 8.01 -4.66 7.02 -5 6 C-4.34 6 -3.68 6 -3 6 C-2.87625 5.195625 -2.7525 4.39125 -2.625 3.5625 C-2.41875 2.716875 -2.2125 1.87125 -2 1 C-1.34 0.67 -0.68 0.34 0 0 Z " fill="#F3E3ED" transform="translate(316,638)"/>
<path d="M0 0 C2.56616632 3.84924948 2.55097676 6.4349304 3 11 C2.01 11 1.02 11 0 11 C0 7.37 0 3.74 0 0 Z " fill="#DBBFCF" transform="translate(318,593)"/>
<path d="M0 0 C0.66 0.33 1.32 0.66 2 1 C-1.625 5.875 -1.625 5.875 -5 7 C-4.67 5.68 -4.34 4.36 -4 3 C-2.68 2.67 -1.36 2.34 0 2 C0 1.34 0 0.68 0 0 Z " fill="#743658" transform="translate(238,551)"/>
<path d="M0 0 C1.32 0.33 2.64 0.66 4 1 C4 1.66 4 2.32 4 3 C4.99 3.33 5.98 3.66 7 4 C7 4.66 7 5.32 7 6 C2.32307692 4.52307692 2.32307692 4.52307692 0.6875 1.875 C0.460625 1.25625 0.23375 0.6375 0 0 Z " fill="#753C5D" transform="translate(598,505)"/>
<path d="M0 0 C0 0.66 0 1.32 0 2 C-2.82847776 4.61896089 -5.21213403 5.4739075 -9 6 C-3.15384615 0 -3.15384615 0 0 0 Z " fill="#774060" transform="translate(663,412)"/>
<path d="M0 0 C0.28875 0.598125 0.5775 1.19625 0.875 1.8125 C2.04742026 4.19327792 2.04742026 4.19327792 4 7 C3.01 7 2.02 7 1 7 C-0.6875 4.5 -0.6875 4.5 -2 2 C-1.34 2 -0.68 2 0 2 C0 1.34 0 0.68 0 0 Z " fill="#6D2D51" transform="translate(652,334)"/>
<path d="M0 0 C0.66 0.33 1.32 0.66 2 1 C1.01 2.32 0.02 3.64 -1 5 C-3.31 4.67 -5.62 4.34 -8 4 C-5.31143836 2.20762558 -3.0466145 1.01553817 0 0 Z " fill="#E1CCDA" transform="translate(242,289)"/>
<path d="M0 0 C0.66 0.33 1.32 0.66 2 1 C1.2884375 1.6496875 1.2884375 1.6496875 0.5625 2.3125 C-1.23686957 4.02309613 -1.23686957 4.02309613 -2 7 C-4.0625 7.6875 -4.0625 7.6875 -6 8 C-4.55746343 4.63408134 -2.66735273 2.48952921 0 0 Z " fill="#7D4A67" transform="translate(491,249)"/>
<path d="M0 0 C-1.24976756 3.65316671 -1.67098753 4.78065836 -5 7 C-4.625 4.0625 -4.625 4.0625 -4 1 C-2 0 -2 0 0 0 Z " fill="#6C3253" transform="translate(361,224)"/>
<path d="M0 0 C1.32 0.33 2.64 0.66 4 1 C2.35 2.98 0.7 4.96 -1 7 C-1.33 6.01 -1.66 5.02 -2 4 C-1.34 4 -0.68 4 0 4 C0 2.68 0 1.36 0 0 Z " fill="#6F3457" transform="translate(246,226)"/>
<path d="M0 0 C0.66 0.99 1.32 1.98 2 3 C1.34 3 0.68 3 0 3 C0.33 4.65 0.66 6.3 1 8 C0.01 8.33 -0.98 8.66 -2 9 C-1.125 2.25 -1.125 2.25 0 0 Z " fill="#814867" transform="translate(594,312)"/>
<path d="M0 0 C0.6875 1.75 0.6875 1.75 1 4 C-0.4375 6.25 -0.4375 6.25 -2 8 C-2.99 7.67 -3.98 7.34 -5 7 C-4.67 6.34 -4.34 5.68 -4 5 C-3.34 5 -2.68 5 -2 5 C-1.34 3.35 -0.68 1.7 0 0 Z " fill="#E5D1DF" transform="translate(692,224)"/>
<path d="M0 0 C0.66 0.99 1.32 1.98 2 3 C1.01 3.99 0.02 4.98 -1 6 C-1.99 5.67 -2.98 5.34 -4 5 C-2.68 3.35 -1.36 1.7 0 0 Z " fill="#753659" transform="translate(599,196)"/>
</svg>
